# xmcd
#
# Track frame offsets:
#	150
#	8847
#	31088
#	46421
#	70226
#	115879
#	130803
#	143235
#	156182
#	176266
#	192469
#
# Disc length: 2798 seconds
#
# Revision: 1
# Processed by: cddbd v1.5.2PL0 Copyright (c) Steve Scherf et al.
# Submitted via: audiograbber 1.83.01
#
DISCID=900aec0b
DTITLE=The Mercury Brothers - Whiskey Kisses
DYEAR=2005
DGENRE=Blues
TTITLE0=The Flood
TTITLE1=Last Night
TTITLE2=Sin and Tonic
TTITLE3=Crooked As A Snake
TTITLE4=Burnin' House
TTITLE5=Pawn My Soul
TTITLE6=10 Lb. Baby
TTITLE7=Your Turn To Pay
TTITLE8=Dying Breath
TTITLE9=Choppin' Block
TTITLE10=Whiskey Kisses
EXTD=
EXTT0=
EXTT1=
EXTT2=
EXTT3=
EXTT4=
EXTT5=
EXTT6=
EXTT7=
EXTT8=
EXTT9=
EXTT10=
PLAYORDER=
